<svg width="408" height="24" viewBox="0 0 408 24" fill="none" xmlns="http://www.w3.org/2000/svg">
<path d="M2 2C10.4298 3.09954 18.6591 4.99241 27.1966 5.39896C32.8333 5.66737 38.3207 4.98565 43.9328 4.88172C46.1438 4.84078 49.0239 4.6443 49.7332 7.3201C50.8029 11.3561 48.6477 17.35 52.541 20.6204C55.2218 22.8722 64.0591 21.3335 67.0235 20.842C72.6248 19.9133 78.1093 15.8073 79.8065 10.2757C80.3716 8.434 80.3705 6.46543 82.5405 8.05901C86.5525 11.0054 90.0699 17.9332 94.6954 19.4751C102.964 22.2312 112.305 20.617 117.047 13.0466C118.238 11.1459 119.241 5.43461 121.961 5.0295C130.749 3.7206 140.25 4.56208 149.116 4.32755C166.416 3.86987 183.402 4.67523 200.654 5.95313C234.667 8.47262 268.979 7.3201 303.066 7.3201C337.277 7.3201 371.463 8.65013 405.663 8.65013" stroke="#FFAA61" stroke-width="3" stroke-linecap="round"/>
</svg>
