<!-- <svg xmlns="http://www.w3.org/2000/svg" viewBox="0 0 1440 320"><path fill="#ebebeb" fill-opacity="1" d="M0,192L80,160C160,128,320,64,480,80C640,96,800,192,960,218.7C1120,245,1280,203,1360,181.3L1440,160L1440,320L1360,320C1280,320,1120,320,960,320C800,320,640,320,480,320C320,320,160,320,80,320L0,320Z"></path></svg> -->
<svg xmlns="http://www.w3.org/2000/svg" viewBox="0 0 1440 320"><path fill="#ebebeb" fill-opacity="1" d="M0,192L80,160C160,128,320,64,480,80C640,96,800,192,960,218.7C1120,245,1280,203,1360,181.3L1440,160L1440,0L1360,0C1280,0,1120,0,960,0C800,0,640,0,480,0C320,0,160,0,80,0L0,0Z"></path></svg>